<svg xmlns="http://www.w3.org/2000/svg" width="175" height="175"><defs><linearGradient id="a" gradientUnits="userSpaceOnUse" x1="55" y1="110" x2="110" y2="55"><stop offset="0"/><stop offset=".5" stop-color="#444"/><stop offset="1"/></linearGradient></defs><path d="M87.5 3.8A83.7 83.7 0 0 0 3.8 87.5a83.7 83.7 0 0 0 83.7 83.7 83.7 83.7 0 0 0 83.7-83.7A83.7 83.7 0 0 0 87.5 3.8zm.3 59.6a24.5 24.5 0 0 1 24.5 24.5 24.5 24.5 0 0 1-24.5 24.5 24.5 24.5 0 0 1-24.5-24.5 24.5 24.5 0 0 1 24.5-24.5z" fill="url(#a)" stroke="#000" stroke-width="7.6"/></svg>
